<svg version="1.1" id="Слой_1" xmlns="http://www.w3.org/2000/svg" xmlns:xlink="http://www.w3.org/1999/xlink" x="0" y="0" viewBox="0 0 279.5 125.63" xml:space="preserve"><style>.st0{clip-path:url(#SVGID_2_);fill:#3d3d3d}</style><defs><path id="SVGID_1_" d="M0 0h279.5v125.63H0z"/></defs><clipPath id="SVGID_2_"><use xlink:href="#SVGID_1_" overflow="visible"/></clipPath><path class="st0" d="M28.63 33.17s-4.02 4.47-6.67 6.64c-2.76 2.26-5.26 5.13-9.05 5.31-2 .1-3.44-.4-3.5.15-.06.55 1.92 1.51 1.92 1.51s-4.02 2.52-3.6 2.88c.42.36 2.94-.96 4.32-1.44 1.38-.48 2.46-.48 2.7-.18.24.3.68 1.01-.17 1.49-.85.48-2.55.19-2.22.66.86 1.22 4.42 1.47 5.24 1.29-.33.2-2.92 1.71-2.31 2.15.66.48 2.58-.96 5.77-2.88 5.33-3.22 9.62-7.8 13.7-12.43l-6.13-5.15zm-6.14 13.75c-1.16.87-2.83 1.53-3.96.48-1.88-1.74 8.36-6.93 9.43-7.48-1.44 2.14-2.89 4.28-4.61 6.21-.22.26-.51.54-.86.79"/><path class="st0" d="M62.85 64.4c-4.44-4.22-8.96-8.36-13.51-12.47 1.24-3.63 2.52-7.24 3.76-10.87 1.13-3.31 2.75-6.95 2.7-10.52-.05-3.53-2.98-6.78-5.1-9.33-1.18-1.42-2.6-2.7-3.4-4.38-.82-1.71-.93-3.78-.94-5.6-.01-1.69 2.62-2.71 2.62-4.01 0-1.31-2.62-2.9-2.62-2.9l-.75-1.68-1.71-.16C42.42 1.43 40.34.08 38.46.01c-3.17-.12-5.27 1.71-7.03 4.13-1.49 2.05-3.17 5.6-3.17 5.6s1.87 0 1.68.93c-.19.93 0 2.99-1.12 6.16s-3.08 5.51-2.8 6.16c.28.65 2.99-1.12 2.99-.19 0 .93-.19 1.68-.75 4.67s-3.17 5.23-2.99 5.79c.19.56 1.31-.37 2.05-.19.75.19.37 2.61 1.68 4.11 1.31 1.49 4.3 2.24 4.3 2.24s.47 2.43 1.12 2.24c.65-.19 2.33-3.92 2.8-5.04.47-1.12 2.05-7.1 2.61-6.91.56.19 2.05 2.43 2.05 3.73s.56 2.61-1.12 7.1c-.98 2.61-3.05 4.68-4.63 6.98-2.05 2.99-2.06 5.63-2 9.15.06 3.2.37 6.51.03 9.7-.35 3.3-.7 6.6-.85 9.92-.09 1.97.3 5.22-.65 7.01-1.04 1.96-1.76 4.98-3.49 6.47-.93.81-1.49 3.24-1.49 3.24s1 0 1.24.75c.25.75.19 14.81.5 16.18.31 1.37-1.74 3.73-1.74 4.98 0 1.24 3.05 1.87 2.74 3.98-.31 2.12-2.21 6.66-1.49 6.72.72.06 3.61-1.49 4.73-4.73 1.12-3.24 1.24-6.22 1.24-6.22-.91-4.56-1.22-9.25-.36-13.84.62-3.3 1.62-6.53 2.35-9.81 0 0 2.8-1 5.48-3.24 3.09-2.59 5.92-5.34 9.59-7.11 2.93-1.42 5.88-2.8 8.75-4.34 1.5-.81 2.98-1.65 4.42-2.56 1.08-.68 2.39-1.51 2.5-2.92.24-2.8-3.03-4.79-4.78-6.45m-13.13 8.07c-3.73 2.8-9.15 9.33-9.15 9.33S43 76.39 44.3 71.72s.75-7.28.75-7.28 2.05.75 4.48 1.68c2.43.93 7.28 3.55 7.28 3.55s-3.35 0-7.09 2.8"/><defs><path id="SVGID_3_" d="M64.18 21.74c-.22.33-.16.68.05 1 .02.04.04.08.07.11.24.21.42.56.82.45.25-.06.46-.52.45-.91-.01-.4-.22-.65-.67-.82a.895.895 0 00-.31-.06.49.49 0 00-.41.23"/></defs><clipPath id="SVGID_4_"><use xlink:href="#SVGID_3_" overflow="visible"/></clipPath><linearGradient id="SVGID_5_" gradientUnits="userSpaceOnUse" x1="0" y1="125.626" x2="1" y2="125.626" gradientTransform="scale(91.7173 -91.7173) rotate(41.017 169.07 62.399)"><stop offset="0" stop-color="#eec65f"/><stop offset=".23" stop-color="#a76f2a"/><stop offset=".33" stop-color="#e2b755"/><stop offset=".58" stop-color="#e2b755"/><stop offset=".69" stop-color="#8f5d21"/><stop offset="1" stop-color="#e2b755"/></linearGradient><path clip-path="url(#SVGID_4_)" fill="url(#SVGID_5_)" d="M63.02 22.34l1.86-1.62 1.63 1.88-1.86 1.62z"/><defs><path id="SVGID_6_" d="M82.21 75.22c-.02.56.3.99.74 1.01.34.02.71-.4.73-.81.02-.49-.26-.74-.86-.77h-.08c-.39 0-.52.14-.53.57"/></defs><clipPath id="SVGID_7_"><use xlink:href="#SVGID_6_" overflow="visible"/></clipPath><linearGradient id="SVGID_8_" gradientUnits="userSpaceOnUse" x1="0" y1="125.625" x2="1" y2="125.625" gradientTransform="scale(91.7174 -91.7174) rotate(41.017 169.825 62.682)"><stop offset="0" stop-color="#eec65f"/><stop offset=".23" stop-color="#a76f2a"/><stop offset=".33" stop-color="#e2b755"/><stop offset=".58" stop-color="#e2b755"/><stop offset=".69" stop-color="#8f5d21"/><stop offset="1" stop-color="#e2b755"/></linearGradient><path clip-path="url(#SVGID_7_)" fill="url(#SVGID_8_)" d="M81.4 75.34l1.65-1.43 1.44 1.65-1.65 1.43z"/><defs><path id="SVGID_9_" d="M19.46 25.77c.01.41.32.66.76.64.39-.02.72-.41.7-.84-.02-.41-.38-.77-.77-.77h-.01c-.41.01-.69.4-.68.97"/></defs><clipPath id="SVGID_10_"><use xlink:href="#SVGID_9_" overflow="visible"/></clipPath><linearGradient id="SVGID_11_" gradientUnits="userSpaceOnUse" x1="0" y1="125.626" x2="1" y2="125.626" gradientTransform="scale(91.7164 -91.7164) rotate(41.017 168.678 62.252)"><stop offset="0" stop-color="#eec65f"/><stop offset=".23" stop-color="#a76f2a"/><stop offset=".33" stop-color="#e2b755"/><stop offset=".58" stop-color="#e2b755"/><stop offset=".69" stop-color="#8f5d21"/><stop offset="1" stop-color="#e2b755"/></linearGradient><path clip-path="url(#SVGID_10_)" fill="url(#SVGID_11_)" d="M18.64 25.51l1.66-1.44 1.45 1.66-1.66 1.44z"/><defs><path id="SVGID_12_" d="M64.88 96.96c-.04.46.35.86.87.89.32.02.55-.18.58-.5.04-.43-.39-.95-.81-.99h-.05c-.33 0-.56.23-.59.6"/></defs><clipPath id="SVGID_13_"><use xlink:href="#SVGID_12_" overflow="visible"/></clipPath><linearGradient id="SVGID_14_" gradientUnits="userSpaceOnUse" x1="0" y1="125.626" x2="1" y2="125.626" gradientTransform="scale(91.7174 -91.7174) rotate(41.017 169.899 62.71)"><stop offset="0" stop-color="#eec65f"/><stop offset=".23" stop-color="#a76f2a"/><stop offset=".33" stop-color="#e2b755"/><stop offset=".58" stop-color="#e2b755"/><stop offset=".69" stop-color="#8f5d21"/><stop offset="1" stop-color="#e2b755"/></linearGradient><path clip-path="url(#SVGID_13_)" fill="url(#SVGID_14_)" d="M64.1 97.01l1.62-1.41 1.4 1.62-1.61 1.41z"/><defs><path id="SVGID_15_" d="M6.43 40.25c-.01.42.36.89.71.9.33.01.63-.36.64-.79.01-.48-.16-.69-.58-.71h-.06c-.46-.01-.69.2-.71.6"/></defs><clipPath id="SVGID_16_"><use xlink:href="#SVGID_15_" overflow="visible"/></clipPath><linearGradient id="SVGID_17_" gradientUnits="userSpaceOnUse" x1="0" y1="125.626" x2="1" y2="125.626" gradientTransform="scale(91.7157 -91.7157) rotate(41.016 168.715 62.266)"><stop offset="0" stop-color="#eec65f"/><stop offset=".23" stop-color="#a76f2a"/><stop offset=".33" stop-color="#e2b755"/><stop offset=".58" stop-color="#e2b755"/><stop offset=".69" stop-color="#8f5d21"/><stop offset="1" stop-color="#e2b755"/></linearGradient><path clip-path="url(#SVGID_16_)" fill="url(#SVGID_17_)" d="M5.67 40.29l1.53-1.32 1.34 1.53-1.53 1.33z"/><defs><path id="SVGID_18_" d="M82.89 43.43c-.01.46.3.82.7.82.38 0 .65-.31.67-.76.01-.37-.41-.77-.84-.79h-.02c-.26 0-.5.34-.51.73"/></defs><clipPath id="SVGID_19_"><use xlink:href="#SVGID_18_" overflow="visible"/></clipPath><linearGradient id="SVGID_20_" gradientUnits="userSpaceOnUse" x1="0" y1="125.626" x2="1" y2="125.626" gradientTransform="scale(91.7198 -91.7198) rotate(41.016 169.48 62.553)"><stop offset="0" stop-color="#eec65f"/><stop offset=".23" stop-color="#a76f2a"/><stop offset=".33" stop-color="#e2b755"/><stop offset=".58" stop-color="#e2b755"/><stop offset=".69" stop-color="#8f5d21"/><stop offset="1" stop-color="#e2b755"/></linearGradient><path clip-path="url(#SVGID_19_)" fill="url(#SVGID_20_)" d="M82.11 43.37l1.56-1.36 1.37 1.58-1.56 1.35z"/><defs><path id="SVGID_21_" d="M15.37 95.04c-.23.14-.26.53-.11.91.19.48.57.57 1.05.57.25-.52.27-.8.1-1.11-.13-.24-.53-.43-.82-.43-.09.01-.16.03-.22.06"/></defs><clipPath id="SVGID_22_"><use xlink:href="#SVGID_21_" overflow="visible"/></clipPath><linearGradient id="SVGID_23_" gradientUnits="userSpaceOnUse" x1="0" y1="125.626" x2="1" y2="125.626" gradientTransform="scale(91.7193 -91.7193) rotate(41.016 169.408 62.526)"><stop offset="0" stop-color="#eec65f"/><stop offset=".23" stop-color="#a76f2a"/><stop offset=".33" stop-color="#e2b755"/><stop offset=".58" stop-color="#e2b755"/><stop offset=".69" stop-color="#8f5d21"/><stop offset="1" stop-color="#e2b755"/></linearGradient><path clip-path="url(#SVGID_22_)" fill="url(#SVGID_23_)" d="M14.35 95.65l1.6-1.39 1.39 1.6-1.59 1.39z"/><defs><path id="SVGID_24_" d="M2.61 58.54c-.44.01-.76.3-.73.67.03.38.33.66.69.65a.76.76 0 00.7-.74c0-.34-.25-.57-.62-.57-.02-.01-.03-.01-.04-.01"/></defs><clipPath id="SVGID_25_"><use xlink:href="#SVGID_24_" overflow="visible"/></clipPath><linearGradient id="SVGID_26_" gradientUnits="userSpaceOnUse" x1="0" y1="125.626" x2="1" y2="125.626" gradientTransform="scale(91.7148 -91.7148) rotate(41.016 168.879 62.328)"><stop offset="0" stop-color="#eec65f"/><stop offset=".23" stop-color="#a76f2a"/><stop offset=".33" stop-color="#e2b755"/><stop offset=".58" stop-color="#e2b755"/><stop offset=".69" stop-color="#8f5d21"/><stop offset="1" stop-color="#e2b755"/></linearGradient><path clip-path="url(#SVGID_25_)" fill="url(#SVGID_26_)" d="M1.19 59.11l1.47-1.27 1.27 1.46-1.47 1.27z"/><defs><path id="SVGID_27_" d="M2.73 74.05c-.2.16-.25.7-.07.98.08.13.2.23.32.37.3-.19.54-.33.76-.5.29-.23.28-.54-.01-.77-.13-.1-.39-.16-.63-.16-.16-.01-.3.02-.37.08"/></defs><clipPath id="SVGID_28_"><use xlink:href="#SVGID_27_" overflow="visible"/></clipPath><linearGradient id="SVGID_29_" gradientUnits="userSpaceOnUse" x1="0" y1="125.624" x2="1" y2="125.624" gradientTransform="scale(91.7173 -91.7173) rotate(41.017 169.053 62.393)"><stop offset="0" stop-color="#eec65f"/><stop offset=".23" stop-color="#a76f2a"/><stop offset=".33" stop-color="#e2b755"/><stop offset=".58" stop-color="#e2b755"/><stop offset=".69" stop-color="#8f5d21"/><stop offset="1" stop-color="#e2b755"/></linearGradient><path clip-path="url(#SVGID_28_)" fill="url(#SVGID_29_)" d="M1.77 74.58l1.59-1.39 1.39 1.59-1.6 1.39z"/><defs><path id="SVGID_30_" d="M80.38 33.52c-.04.37.24.75.57.78.3.02.59-.29.63-.66.03-.4-.21-.68-.62-.71h-.04c-.3-.01-.5.21-.54.59"/></defs><clipPath id="SVGID_31_"><use xlink:href="#SVGID_30_" overflow="visible"/></clipPath><linearGradient id="SVGID_32_" gradientUnits="userSpaceOnUse" x1="0" y1="125.626" x2="1" y2="125.626" gradientTransform="scale(91.7135 -91.7135) rotate(41.017 169.347 62.503)"><stop offset="0" stop-color="#eec65f"/><stop offset=".23" stop-color="#a76f2a"/><stop offset=".33" stop-color="#e2b755"/><stop offset=".58" stop-color="#e2b755"/><stop offset=".69" stop-color="#8f5d21"/><stop offset="1" stop-color="#e2b755"/></linearGradient><path clip-path="url(#SVGID_31_)" fill="url(#SVGID_32_)" d="M79.65 33.52l1.41-1.23 1.24 1.42-1.41 1.23z"/><defs><path id="SVGID_33_" d="M10.69 83.23c-.3.02-.45.26-.43.7.02.43.28.72.63.71.37-.01.58-.26.57-.67-.01-.41-.34-.74-.73-.74h-.04"/></defs><clipPath id="SVGID_34_"><use xlink:href="#SVGID_33_" overflow="visible"/></clipPath><linearGradient id="SVGID_35_" gradientUnits="userSpaceOnUse" x1="0" y1="125.626" x2="1" y2="125.626" gradientTransform="scale(91.7176 -91.7176) rotate(41.017 169.23 62.459)"><stop offset="0" stop-color="#eec65f"/><stop offset=".23" stop-color="#a76f2a"/><stop offset=".33" stop-color="#e2b755"/><stop offset=".58" stop-color="#e2b755"/><stop offset=".69" stop-color="#8f5d21"/><stop offset="1" stop-color="#e2b755"/></linearGradient><path clip-path="url(#SVGID_34_)" fill="url(#SVGID_35_)" d="M9.54 83.84l1.4-1.22 1.23 1.41-1.4 1.23z"/><defs><path id="SVGID_36_" d="M46.77 98.85c-.32 0-.69.4-.67.7.03.31.32.56.64.55.28-.01.58-.33.59-.62 0-.31-.28-.63-.56-.63"/></defs><clipPath id="SVGID_37_"><use xlink:href="#SVGID_36_" overflow="visible"/></clipPath><linearGradient id="SVGID_38_" gradientUnits="userSpaceOnUse" x1="0" y1="125.626" x2="1" y2="125.626" gradientTransform="scale(91.7177 -91.7177) rotate(41.016 169.744 62.651)"><stop offset="0" stop-color="#eec65f"/><stop offset=".23" stop-color="#a76f2a"/><stop offset=".33" stop-color="#e2b755"/><stop offset=".58" stop-color="#e2b755"/><stop offset=".69" stop-color="#8f5d21"/><stop offset="1" stop-color="#e2b755"/></linearGradient><path clip-path="url(#SVGID_37_)" fill="url(#SVGID_38_)" d="M45.45 99.39l1.34-1.16 1.17 1.34-1.34 1.16z"/><defs><path id="SVGID_39_" d="M8.63 26.41c.07.39.24.67.59.66.21 0 .45-.15.61-.3.22-.21.14-.45-.15-.56-.14-.05-.27-.08-.4-.08-.23 0-.45.08-.65.28"/></defs><clipPath id="SVGID_40_"><use xlink:href="#SVGID_39_" overflow="visible"/></clipPath><linearGradient id="SVGID_41_" gradientUnits="userSpaceOnUse" x1="0" y1="125.625" x2="1" y2="125.625" gradientTransform="scale(91.716 -91.716) rotate(41.016 168.584 62.217)"><stop offset="0" stop-color="#eec65f"/><stop offset=".23" stop-color="#a76f2a"/><stop offset=".33" stop-color="#e2b755"/><stop offset=".58" stop-color="#e2b755"/><stop offset=".69" stop-color="#8f5d21"/><stop offset="1" stop-color="#e2b755"/></linearGradient><path clip-path="url(#SVGID_40_)" fill="url(#SVGID_41_)" d="M8.16 26.54l1.27-1.11 1.08 1.24-1.27 1.11z"/><defs><path id="SVGID_42_" d="M57.17 27.3c.91.76.68 1.83.94 2.76.5-.11.4-.49.38-.79-.02-.31-.09-.61-.14-.95.79.61 1.17 2.23.84 3.44-1.35-.46-2.53-2.95-2.02-4.46m-.01-.81c-.24.14-.54.24-.54.61 0 .31-.02.62-.03.93-.05.87.15 1.7.67 2.39.59.78 1.24 1.5 1.88 2.24.05.06.15.07.29.12.29-.89.5-1.75.35-2.68-.22-1.42-1.09-2.45-2.03-3.44-.11-.12-.24-.23-.4-.23-.06.01-.13.02-.19.06"/></defs><clipPath id="SVGID_43_"><use xlink:href="#SVGID_42_" overflow="visible"/></clipPath><linearGradient id="SVGID_44_" gradientUnits="userSpaceOnUse" x1="0" y1="125.626" x2="1" y2="125.626" gradientTransform="scale(91.7177 -91.7177) rotate(41.016 169.086 62.405)"><stop offset="0" stop-color="#eec65f"/><stop offset=".23" stop-color="#a76f2a"/><stop offset=".33" stop-color="#e2b755"/><stop offset=".58" stop-color="#e2b755"/><stop offset=".69" stop-color="#8f5d21"/><stop offset="1" stop-color="#e2b755"/></linearGradient><path clip-path="url(#SVGID_43_)" fill="url(#SVGID_44_)" d="M53.39 29.17l5.07-4.41 4.6 5.29-5.07 4.41z"/><defs><path id="SVGID_45_" d="M50.72 91.1c-.08.49.31 1.02.77 1.07.37.03.67-.38.66-.9-.01-.53-.22-.83-.63-.87h-.08c-.36-.01-.65.27-.72.7"/></defs><clipPath id="SVGID_46_"><use xlink:href="#SVGID_45_" overflow="visible"/></clipPath><linearGradient id="SVGID_47_" gradientUnits="userSpaceOnUse" x1="0" y1="125.626" x2="1" y2="125.626" gradientTransform="scale(91.7172 -91.7172) rotate(41.016 169.7 62.634)"><stop offset="0" stop-color="#eec65f"/><stop offset=".23" stop-color="#a76f2a"/><stop offset=".33" stop-color="#e2b755"/><stop offset=".58" stop-color="#e2b755"/><stop offset=".69" stop-color="#8f5d21"/><stop offset="1" stop-color="#e2b755"/></linearGradient><path clip-path="url(#SVGID_46_)" fill="url(#SVGID_47_)" d="M49.75 91.17l1.76-1.53 1.55 1.78-1.76 1.53z"/><defs><path id="SVGID_48_" d="M74.96 58.51c-.47 0-.77.32-.76.8.01.44.33.75.76.73.43-.02.76-.43.72-.93-.02-.37-.28-.59-.71-.59l-.01-.01"/></defs><clipPath id="SVGID_49_"><use xlink:href="#SVGID_48_" overflow="visible"/></clipPath><linearGradient id="SVGID_50_" gradientUnits="userSpaceOnUse" x1="0" y1="125.626" x2="1" y2="125.626" gradientTransform="scale(91.7187 -91.7187) rotate(41.017 169.572 62.587)"><stop offset="0" stop-color="#eec65f"/><stop offset=".23" stop-color="#a76f2a"/><stop offset=".33" stop-color="#e2b755"/><stop offset=".58" stop-color="#e2b755"/><stop offset=".69" stop-color="#8f5d21"/><stop offset="1" stop-color="#e2b755"/></linearGradient><path clip-path="url(#SVGID_49_)" fill="url(#SVGID_50_)" d="M73.42 59.17l1.63-1.42 1.43 1.64-1.64 1.42z"/><defs><path id="SVGID_51_" d="M27.91 86.91c-.02.36.44.83.82.84.39.01.72-.32.7-.72-.01-.4-.33-.7-.73-.7-.36-.01-.78.31-.79.58"/></defs><clipPath id="SVGID_52_"><use xlink:href="#SVGID_51_" overflow="visible"/></clipPath><linearGradient id="SVGID_53_" gradientUnits="userSpaceOnUse" x1="0" y1="125.626" x2="1" y2="125.626" gradientTransform="scale(91.7184 -91.7184) rotate(41.017 169.435 62.536)"><stop offset="0" stop-color="#eec65f"/><stop offset=".23" stop-color="#a76f2a"/><stop offset=".33" stop-color="#e2b755"/><stop offset=".58" stop-color="#e2b755"/><stop offset=".69" stop-color="#8f5d21"/><stop offset="1" stop-color="#e2b755"/></linearGradient><path clip-path="url(#SVGID_52_)" fill="url(#SVGID_53_)" d="M27.17 86.94l1.6-1.39 1.38 1.59-1.59 1.39z"/><defs><path id="SVGID_54_" d="M64.98 81.44c.01.35.25.63.59.83.26.15.62.06.78-.16a.6.6 0 00-.08-.79 2.81 2.81 0 00-.6-.42.748.748 0 00-.3-.08c-.25 0-.39.21-.39.62"/></defs><clipPath id="SVGID_55_"><use xlink:href="#SVGID_54_" overflow="visible"/></clipPath><linearGradient id="SVGID_56_" gradientUnits="userSpaceOnUse" x1="0" y1="125.625" x2="1" y2="125.625" gradientTransform="scale(91.7173 -91.7173) rotate(41.017 169.729 62.645)"><stop offset="0" stop-color="#eec65f"/><stop offset=".23" stop-color="#a76f2a"/><stop offset=".33" stop-color="#e2b755"/><stop offset=".58" stop-color="#e2b755"/><stop offset=".69" stop-color="#8f5d21"/><stop offset="1" stop-color="#e2b755"/></linearGradient><path clip-path="url(#SVGID_55_)" fill="url(#SVGID_56_)" d="M64.18 81.51l1.67-1.45 1.46 1.67-1.67 1.45z"/><defs><path id="SVGID_57_" d="M12.34 59.5c-.2.06-.43.22-.54.4-.14.21.12.86.32 1.01.29.2.5.16.63-.16.1-.24.14-.5.17-.64-.01-.44-.13-.64-.39-.64a.68.68 0 00-.19.03"/></defs><clipPath id="SVGID_58_"><use xlink:href="#SVGID_57_" overflow="visible"/></clipPath><linearGradient id="SVGID_59_" gradientUnits="userSpaceOnUse" x1="0" y1="125.626" x2="1" y2="125.626" gradientTransform="scale(91.716 -91.716) rotate(41.016 168.984 62.367)"><stop offset="0" stop-color="#eec65f"/><stop offset=".23" stop-color="#a76f2a"/><stop offset=".33" stop-color="#e2b755"/><stop offset=".58" stop-color="#e2b755"/><stop offset=".69" stop-color="#8f5d21"/><stop offset="1" stop-color="#e2b755"/></linearGradient><path clip-path="url(#SVGID_58_)" fill="url(#SVGID_59_)" d="M10.84 60.17l1.53-1.33 1.36 1.56-1.53 1.33z"/><defs><path id="SVGID_60_" d="M66.13 38.43c-.38.02-.66.31-.66.68.01.37.32.68.67.67.33-.01.68-.42.67-.78 0-.3-.33-.57-.66-.57h-.02"/></defs><clipPath id="SVGID_61_"><use xlink:href="#SVGID_60_" overflow="visible"/></clipPath><linearGradient id="SVGID_62_" gradientUnits="userSpaceOnUse" x1="0" y1="125.626" x2="1" y2="125.626" gradientTransform="scale(91.7156 -91.7156) rotate(41.017 169.266 62.472)"><stop offset="0" stop-color="#eec65f"/><stop offset=".23" stop-color="#a76f2a"/><stop offset=".33" stop-color="#e2b755"/><stop offset=".58" stop-color="#e2b755"/><stop offset=".69" stop-color="#8f5d21"/><stop offset="1" stop-color="#e2b755"/></linearGradient><path clip-path="url(#SVGID_61_)" fill="url(#SVGID_62_)" d="M64.79 39.02l1.45-1.26 1.25 1.45-1.44 1.25z"/><defs><path id="SVGID_63_" d="M75.93 68.56c-.01.3.28.61.58.62.38.01.74-.32.75-.7.01-.3-.24-.53-.63-.56h-.04c-.35.01-.65.29-.66.64"/></defs><clipPath id="SVGID_64_"><use xlink:href="#SVGID_63_" overflow="visible"/></clipPath><linearGradient id="SVGID_65_" gradientUnits="userSpaceOnUse" x1="0" y1="125.626" x2="1" y2="125.626" gradientTransform="scale(91.7185 -91.7185) rotate(41.017 169.69 62.63)"><stop offset="0" stop-color="#eec65f"/><stop offset=".23" stop-color="#a76f2a"/><stop offset=".33" stop-color="#e2b755"/><stop offset=".58" stop-color="#e2b755"/><stop offset=".69" stop-color="#8f5d21"/><stop offset="1" stop-color="#e2b755"/></linearGradient><path clip-path="url(#SVGID_64_)" fill="url(#SVGID_65_)" d="M75.29 68.47l1.4-1.22 1.21 1.4-1.4 1.22z"/><defs><path id="SVGID_66_" d="M15.4 72.15c0 .42.2.75.48.77.3.02.61-.31.63-.65.01-.39-.25-.64-.67-.65h-.02c-.28 0-.41.17-.42.53"/></defs><clipPath id="SVGID_67_"><use xlink:href="#SVGID_66_" overflow="visible"/></clipPath><linearGradient id="SVGID_68_" gradientUnits="userSpaceOnUse" x1="0" y1="125.625" x2="1" y2="125.625" gradientTransform="scale(91.7174 -91.7174) rotate(41.017 169.15 62.429)"><stop offset="0" stop-color="#eec65f"/><stop offset=".23" stop-color="#a76f2a"/><stop offset=".33" stop-color="#e2b755"/><stop offset=".58" stop-color="#e2b755"/><stop offset=".69" stop-color="#8f5d21"/><stop offset="1" stop-color="#e2b755"/></linearGradient><path clip-path="url(#SVGID_67_)" fill="url(#SVGID_68_)" d="M14.75 72.19l1.29-1.13 1.14 1.31-1.3 1.12z"/><defs><path id="SVGID_69_" d="M68.23 50.66c-.29 0-.53.2-.54.48-.01.3.22.51.56.52.32.01.54-.18.54-.46s-.26-.54-.56-.54c.01 0 .01 0 0 0"/></defs><clipPath id="SVGID_70_"><use xlink:href="#SVGID_69_" overflow="visible"/></clipPath><linearGradient id="SVGID_71_" gradientUnits="userSpaceOnUse" x1="0" y1="125.626" x2="1" y2="125.626" gradientTransform="scale(91.7137 -91.7137) rotate(41.016 169.419 62.53)"><stop offset="0" stop-color="#eec65f"/><stop offset=".23" stop-color="#a76f2a"/><stop offset=".33" stop-color="#e2b755"/><stop offset=".58" stop-color="#e2b755"/><stop offset=".69" stop-color="#8f5d21"/><stop offset="1" stop-color="#e2b755"/></linearGradient><path clip-path="url(#SVGID_70_)" fill="url(#SVGID_71_)" d="M67.18 51.09l1.14-.98.98 1.12-1.14.99z"/><defs><path id="SVGID_72_" d="M56.83 21.88c.01.33.32.63.64.62.27-.01.47-.15.51-.42.05-.31-.28-.67-.58-.68h-.03c-.31-.01-.54.19-.54.48"/></defs><clipPath id="SVGID_73_"><use xlink:href="#SVGID_72_" overflow="visible"/></clipPath><linearGradient id="SVGID_74_" gradientUnits="userSpaceOnUse" x1="0" y1="125.626" x2="1" y2="125.626" gradientTransform="scale(91.7186 -91.7186) rotate(41.016 168.994 62.37)"><stop offset="0" stop-color="#eec65f"/><stop offset=".23" stop-color="#a76f2a"/><stop offset=".33" stop-color="#e2b755"/><stop offset=".58" stop-color="#e2b755"/><stop offset=".69" stop-color="#8f5d21"/><stop offset="1" stop-color="#e2b755"/></linearGradient><path clip-path="url(#SVGID_73_)" fill="url(#SVGID_74_)" d="M56.28 21.87l1.24-1.08 1.08 1.24-1.25 1.08z"/><defs><path id="SVGID_75_" d="M84.61 58.95c-.2.01-.49.34-.49.56-.01.23.32.57.55.57.24 0 .37-.19.37-.59 0-.31-.18-.54-.41-.54 0-.01-.01-.01-.02 0"/></defs><clipPath id="SVGID_76_"><use xlink:href="#SVGID_75_" overflow="visible"/></clipPath><linearGradient id="SVGID_77_" gradientUnits="userSpaceOnUse" x1="0" y1="125.626" x2="1" y2="125.626" gradientTransform="scale(91.7174 -91.7174) rotate(41.017 169.667 62.623)"><stop offset="0" stop-color="#eec65f"/><stop offset=".23" stop-color="#a76f2a"/><stop offset=".33" stop-color="#e2b755"/><stop offset=".58" stop-color="#e2b755"/><stop offset=".69" stop-color="#8f5d21"/><stop offset="1" stop-color="#e2b755"/></linearGradient><path clip-path="url(#SVGID_76_)" fill="url(#SVGID_77_)" d="M83.55 59.43l1.1-.95.96 1.11-1.09.95z"/><defs><path id="SVGID_78_" d="M70.6 41.83c-.07.29-.1.62-.05.91.03.2.27.28.49.2.29-.09.46-.34.38-.68-.05-.25-.19-.49-.34-.89-.22.2-.44.3-.48.46"/></defs><clipPath id="SVGID_79_"><use xlink:href="#SVGID_78_" overflow="visible"/></clipPath><linearGradient id="SVGID_80_" gradientUnits="userSpaceOnUse" x1="0" y1="125.626" x2="1" y2="125.626" gradientTransform="scale(91.7159 -91.7159) rotate(41.017 169.347 62.503)"><stop offset="0" stop-color="#eec65f"/><stop offset=".23" stop-color="#a76f2a"/><stop offset=".33" stop-color="#e2b755"/><stop offset=".58" stop-color="#e2b755"/><stop offset=".69" stop-color="#8f5d21"/><stop offset="1" stop-color="#e2b755"/></linearGradient><path clip-path="url(#SVGID_79_)" fill="url(#SVGID_80_)" d="M69.68 42.07l1.39-1.2 1.24 1.43-1.38 1.21z"/><defs><path id="SVGID_81_" d="M43.67 93.32c.26.56.49 1.15 1.09 1.46.08.04.2-.02.31-.04-.03-.11-.02-.28-.09-.34-.7-.56-1.09-1.27-1.13-2.18-.01-.11-.13-.22-.26-.42-.26.62-.13 1.08.08 1.52"/></defs><clipPath id="SVGID_82_"><use xlink:href="#SVGID_81_" overflow="visible"/></clipPath><linearGradient id="SVGID_83_" gradientUnits="userSpaceOnUse" x1="0" y1="125.627" x2="1" y2="125.627" gradientTransform="scale(91.716 -91.716) rotate(41.016 169.653 62.617)"><stop offset="0" stop-color="#eec65f"/><stop offset=".23" stop-color="#a76f2a"/><stop offset=".33" stop-color="#e2b755"/><stop offset=".58" stop-color="#e2b755"/><stop offset=".69" stop-color="#8f5d21"/><stop offset="1" stop-color="#e2b755"/></linearGradient><path clip-path="url(#SVGID_82_)" fill="url(#SVGID_83_)" d="M41.84 93.1l2.48-2.16 2.24 2.58-2.48 2.16z"/><defs><path id="SVGID_84_" d="M61.06 95.3c-.33.02-.6.3-.58.6.02.27.24.44.56.44.36 0 .58-.24.56-.59-.02-.28-.22-.46-.5-.46-.02.01-.03.01-.04.01"/></defs><clipPath id="SVGID_85_"><use xlink:href="#SVGID_84_" overflow="visible"/></clipPath><linearGradient id="SVGID_86_" gradientUnits="userSpaceOnUse" x1="0" y1="125.626" x2="1" y2="125.626" gradientTransform="scale(91.7192 -91.7192) rotate(41.017 169.84 62.687)"><stop offset="0" stop-color="#eec65f"/><stop offset=".23" stop-color="#a76f2a"/><stop offset=".33" stop-color="#e2b755"/><stop offset=".58" stop-color="#e2b755"/><stop offset=".69" stop-color="#8f5d21"/><stop offset="1" stop-color="#e2b755"/></linearGradient><path clip-path="url(#SVGID_85_)" fill="url(#SVGID_86_)" d="M59.94 95.75l1.17-1.03 1.02 1.17-1.18 1.02z"/><defs><path id="SVGID_87_" d="M56.08 23.52c-.63-.33-1.06-.77-1.22-1.57-.26-1.35.37-2.32 1.11-3.29.08-.11.25-.19.4-.22.74-.17 1.47.19 1.85.86.15.26.36.48.57.77.13-.16.21-.26.28-.36.27-.36.76-.53 1.17-.42.62.17.81.52.53 1.1-.16.33-.43.61-.66.9-.13.16-.3.3-.45.44.18.33.35.59.47.87.17.41.05.74-.36.86-.72.21-1.45.41-2.17.41-.5.01-1.01-.09-1.52-.35m-.07-5.56c-.36.08-.59.3-.76.6-.18.33-.34.67-.53 1-.35.6-.46 1.24-.33 1.93.08.39.12.79.13 1.19 0 .03-.01.06-.01.09.32.42.64.85.94 1.3.09-.01.18-.03.29-.1.08-.05.25.05.38.1 1.35.53 2.67.26 3.98-.18.47-.16.68-.56.58-1.06-.06-.32-.17-.64-.28-.99.11-.14.26-.28.35-.45.21-.39.46-.77.58-1.18.18-.63-.15-1.14-.76-1.36-.51-.19-1-.18-1.48.11-.12.07-.25.14-.37.21-.62-.99-1.24-1.29-1.93-1.29-.24-.02-.5.02-.78.08"/></defs><clipPath id="SVGID_88_"><use xlink:href="#SVGID_87_" overflow="visible"/></clipPath><linearGradient id="SVGID_89_" gradientUnits="userSpaceOnUse" x1="0" y1="125.624" x2="1" y2="125.624" gradientTransform="scale(91.7176 -91.7176) rotate(41.017 168.988 62.368)"><stop offset="0" stop-color="#eec65f"/><stop offset=".23" stop-color="#a76f2a"/><stop offset=".33" stop-color="#e2b755"/><stop offset=".58" stop-color="#e2b755"/><stop offset=".69" stop-color="#8f5d21"/><stop offset="1" stop-color="#e2b755"/></linearGradient><path clip-path="url(#SVGID_88_)" fill="url(#SVGID_89_)" d="M50.93 20.75l7.47-6.49 6.46 7.43-7.47 6.49z"/><defs><path id="SVGID_90_" d="M55.27 99.27c-1.15-.03-2.01-1.01-1.78-2.06.14.02.3 0 .42.06.38.18.75.38 1.11.6.38.23.58.6.71 1.01.15.48.32.96.49 1.46-.46.5-1.44.64-2.18.34-.52-.21-1-.96-.89-2.02.44.31.8.59 1.19.83.18.11.41.18.62.2H55c.27.01.35-.17.27-.42m-14.66-1.44c.39-.25.83-.42 1.24-.63l.04-.04.03-.03c.05-.22.11-.44.2-.79.06.48.06.5-.2.79 0 .02-.01.04-.01.05-.02.01-.03.02-.05.03-.9 1.11-1.95 2.04-3.32 2.71-.02-.55.02-1.01.34-1.33.59-.6 1.23-1.15 1.87-1.69.17-.15.43-.19.76-.33-.11.37-.35.38-.52.48-.19.12-.37.24-.55.37-.27.19-.54.38-.78.61-.18.16-.31.38-.13.72.36-.32.69-.67 1.08-.92m19.25.94c-.35-.07-.36-.35-.39-.62-.02-.13 0-.27 0-.47.02-.44.02-.44-.51-.46-.39-.01-.5-.11-.51-.44-.01-.77.98-2.1 1.7-2.29.66-.18 1.13-.01 1.56.6.26.36.48.75.7 1.14.25.44.21.9.03 1.36-.17.4-.33.46-.72.25-.53-.28-.53-.28-.88.22-.09.13-.17.26-.25.39-.14.23-.32.35-.56.35-.06-.02-.11-.02-.17-.03m-11.72-7.2c1 .06 2.22 1.24 2.78 2.71-.13 0-.34.02-.34 0-.14-.77-.88-1.05-1.3-1.59-.04-.05-.15-.05-.25-.09-.2.42.13.58.32.79.21.23.43.44.72.74-1.16-.14-1.91-1.57-1.93-2.56m6.54.17c-.18-.1-.33-.22-.24-.54.54-.15 1.06.07 1.56.27.42.17.79.46 1.18.69.07.04.13.1.2.15-.02.05-.03.09-.05.14a5.86 5.86 0 01-2.65-.71m12.95-.78c.09-.03.14-.07.17-.05.93.36 1.92.32 2.89.43.66.07 1.3.41 1.93.68.16.07.31.27.39.44.25.55.26 1.15.42 1.75-1.56.65-3.03.97-4.59.33-.61-.25-.96-.69-1.06-1.35-.05-.31-.11-.61-.13-.94.47.6 1.06 1.05 1.72 1.4.31.17.65.29.99.39.34.09.57-.05.63-.32.07-.31-.07-.5-.4-.6-.04.16-.08.3-.12.43-1.29-.21-2.55-1.36-2.84-2.59m-4.48-1.24c-.78-.12-1.48-.41-2.07-1.22 1.26-.17 2.16.21 2.98.98-.14.23-.33.29-.52.29-.13 0-.27-.03-.39-.05m1.28-4.15c-.08-.07-.19-.11-.29-.15-1.08-.42-1.57-.92-1.97-2.08.24.07.44.13.63.19.42.14.83.28 1.3.15.17-.05.39.03.57.1.45.18.9.37 1.34.58.26.12.47.31.52.7-.75-.03-1.36-.27-1.87-.78-.15-.15-.25-.45-.57-.33.05.58.1.63 2.02 1.67-.33.15-.63.25-.92.25-.26 0-.51-.09-.76-.3m9.03-1.54c-.08-.39-.14-.78-.19-1.18-.02-.19-.04-.4.03-.58.14-.38.42-.43.71-.14.38.38.67.82.73 1.38.08.84.04 1.67-.2 2.52-.59-.55-.93-1.22-1.08-2m-5.65-4.97c.77-.82 1.8-1.08 2.78-1.33 1.47-.38 3.24-.21 3.89.27-.23.11-.41.23-.6.28a9.55 9.55 0 01-3.1.32c-.23-.01-.48-.11-.72.21.68.23 1.33.17 1.97.12.65-.05 1.3-.16 2.07-.25-.75.7-2.05 1.13-3.4 1.13-1 .02-2.03-.21-2.89-.75m10.07-1.98c-.38-.95-.25-1.9.39-2.82.4.21.54.5.59.8.19 1.05.36 2.1.53 3.16.02.1 0 .21 0 .41-.88-.2-1.24-.88-1.51-1.55m-3.46-3.51c0-.44.29-.73.6-.95.94-.66 2.01-1 3.12-1.25.06-.01.13.02.26.05-1.09 1.18-2.4 2.21-3.53 2.21-.15 0-.3-.02-.45-.06m9.29-3.83c-1.02-.91-1.87-1.93-2.7-3.09 1.34.06 2.32.59 3.05 1.52.49.63.85 1.35 1.26 2.04.09.15.13.33.17.5.12.5-.04.68-.55.57-.93-.21-1.75-.67-2.45-1.3-.77-.69-1.39-1.5-1.64-2.72.53.6.95 1.08 1.39 1.56.3.33.6.66.92.97.07.07.12.11.18.11.08 0 .17-.06.37-.16m-8.32-5.79c.17-.66.66-1.06 1.16-1.44.51-.38 1.08-.41 1.81-.3-.58.64-1.27.56-1.89.74.31.27.31.27 1.47.15-.29.53-1.19.94-1.96.94-.22.01-.42-.02-.59-.09m8.32-2.35c-.45-.47-.9-1-.95-1.72-.05-.64.01-1.24.62-1.62.15-.09.25-.25.4-.34.87-.58 1.54-.56 2.4.04.15.1.29.21.43.32.54.43.56.97.03 1.45-.07.06-.15.1-.21.17-.15.17-.15.36.07.42.39.1.64.29.68.71.05.47-.04.88-.42 1.2-.05.04-.1.09-.25.21-.42-.39-.82-.76-1.21-1.11-.08.03-.14.03-.15.06-.22.39-.47.6-.75.6-.22-.02-.45-.14-.69-.39m-6.94-6.87c-.39.4-.84.68-1.35.86-.17.06-.4.06-.32.31.09.28.32.15.5.07.34-.16.67-.33 1.01-.49.08-.04.17-.04.33-.08-.09.29-.24.46-.45.56-.5.24-1 .48-1.52.66-.18.06-.45.01-.63-.08-.37-.21-.64-.52-.75-1 .61-.11 1.16-.17 1.69-.31.5-.14.98-.37 1.49-.5m3.2-8.08c.4-.33.79-.39 1.18-.46.93-.16 1.82.04 2.68.36.15.05.29.13.4.24.55.55 1.08 1.11 1.66 1.71-.38.39-.84.48-1.3.47-1.09-.02-2.18-.11-3.17-.65-.25-.14-.54-.2-.82-.28-.58-.17-1.08-.45-1.36-1.11.3.11.6.22.89.32.71.25 1.42.51 2.14.73.41.13.84.12 1.16-.46-.12 0-.23.01-.35.01-1.09.01-2.1-.26-3.11-.88M74.47 49c-.34-.45-.35-.98-.22-1.5.25-1.02.77-1.92 1.45-2.72.06.02.11.04.17.06-.11.38-.18.78-.36 1.11-.18.33-.48.6-.73.91.45.1.88-.1 1.11-.59.19-.4.3-.83.46-1.3.03.15.1.29.08.41-.22 1.16-.51 2.29-1.25 3.26-.15.2-.33.35-.6.35-.04.01-.08.01-.11.01m-4.26-3.98c-.55-.28-.84-.81-.78-1.43.01-.15.05-.3.07-.45-.64-.33-.69-.34-.5-1.01.16-.57.39-1.14.69-1.65.39-.65 1.48-.68 2.14-.13.97.82 1.42 1.86 1.36 3.12-.01.13-.02.27-.06.39-.18.62-.78.84-1.31.49-.18-.12-.34-.26-.58-.45-.13.35-.22.62-.34.87-.11.24-.2.34-.35.34-.1.01-.21-.03-.34-.09m8.12-4.33c-.28-.1-.49-.19-.71-.24-.48-.12-.96-.21-1.43-.35-.47-.14-.93-.31-1.25-.84.97-.45 1.92-.8 2.92-.24.8.45 1.55 1.01 2.36 1.55-.97.54-1.89 1.01-2.99.38.12-.05.26-.03.39 0 .08.01.16.03.23.03.18 0 .33-.06.48-.29m-7.28-7.89c.68-1.51 2.62-1.32 3.82-.39-.57 1.15-2.52 1.7-3.74 1.01.84-.31 1.67-.26 2.42-.59.02-.01.01-.08.01-.17-.53-.25-1.05-.12-1.56 0-.3.07-.6.14-.9.14h-.05m-6.86-2.16c.34.58.41 1.2.37 1.79-.04.59-.25 1.17-.39 1.79.45.04.63-.22.69-.52.1-.43.13-.88.17-1.32.02-.22 0-.44 0-.67.76 1.18.84 3.23-.78 4.7-1.03-1.28-1.07-4.42-.06-5.77m3.65-4.62c-.06.93-1.1 1.52-2.56 1.3.17-.07.34-.14.52-.2.13-.05.27-.06.38-.13.08-.05.15-.18.14-.26-.01-.08-.15-.18-.22-.18-.26.01-.52.06-.78.1.48-.84 1.47-1.09 2.52-.63m-11.34-.23c.9.33 1.8.69 2.68 1.05.86.35 1.64.89 2.45 1.35.64.36 1.28.71 1.9 1.1.22.14.38.39.54.57-.64.73-.85 1.55-.99 2.38-.23 1.33.11 2.61.44 3.88.08.29.11.58.19 1 .17.15.44.13.67-.11.84-.85 1.56-1.77 1.59-3.05.02-.74-.03-1.47-.29-2.17-.1-.28-.19-.58-.29-.9.34-.06.48.15.61.29.82.84 1.7 1.63 2.44 2.55.62.77 1.13 1.63 1.97 2.16.37.31.66.71.96 1.1.13.17.21.4.25.61.05.33.06.67.05 1-.05 1.01-.23.94-.92.91-.73-.03-1.28.29-1.59.99-.29.65-.59 1.29-.89 1.94-.15.32-.07.58.21.75.35.22.51.48.52.92.02.63.8 1.39 1.43 1.52.28.06.49-.01.65-.23.13-.18.25-.36.39-.56.1.01.19-.01.26.03.64.32 1.14.11 1.62-.36.23-.22.34-.45.34-.76.02-1.34-.27-2.57-1.29-3.52-.27-.26-.36-.52-.3-.89.07-.46.08-.92.13-1.46.42.27.67.61.88.95.63 1 1.22 2.01 1.83 3.02.24.4.47.81.7 1.21.2.34.19.63-.06.98-.69.98-1.39 1.97-1.67 3.17-.08.32-.12.65-.11.98 0 .43.07.87.11 1.38.59.11 1.09-.14 1.49-.58.52-.57.82-1.27 1.05-1.99.17-.53.3-1.06.46-1.6.34-.01.43.25.53.45.34.67.66 1.36.99 2.04.18.38.36.77.53 1.15.53 1.14.51 2.27.03 3.42-.25.6-.78.94-1.28 1.21-.91.49-1.9.86-2.88 1.23-.5.19-1.04.22-1.56-.07-.11-.06-.35-.01-.46.08-.07.05-.05.31.02.41.29.44.61.87.94 1.29.42.54.96.57 1.57.35 1.11-.39 1.94-1.15 2.67-2.04.57-.69.99-1.48 1.35-2.29.1-.21.23-.4.38-.65.12.14.21.2.22.27.21 1.04.49 2.06.3 3.16-.11.61.06 1.28.12 1.92.06.58.11 1.15.22 1.72.18.92-.32 1.63-.67 2.39-.17.36-.54.33-.88.34-.6.02-1.2.02-1.79.1-.69.09-1.23.47-1.66 1.03-.31.4-.64.78-.99 1.19.1.09.17.21.28.25.54.19 1.08.27 1.63.06.73-.27 1.45-.56 2.05-1.08.67-.58 1.33-1.15 2.04-1.77-.13.73-.25 1.47-.38 2.2-.14.79-.29 1.58-.4 2.37-.04.29-.13.63.22.84.06.03.1.16.08.23-.11.63 0 1.29-.34 1.89-.25.42-.44.87-.64 1.32-.12.28-.31.39-.61.44-1.22.2-2.33.72-3.43 1.26-.25.12-.43.38-.65.57-.24.22-.47.44-.74.63-.13.21-.02.39.18.46.31.1.65.24.96.2.71-.08 1.39-.29 1.96-.77.45-.37.92-.7 1.39-1.04.12-.09.26-.14.43-.23.08.6-.21 1.02-.53 1.35-.32.32-.45.69-.59 1.09-.39 1.17-1.06 2.19-1.78 3.18-.16.22-.4.22-.6.12-1.02-.53-2.12-.44-3.2-.48-.99-.04-1.94.11-2.85.57-.61.31-1.28.5-1.8.99-.13.13-.35.16-.53.23-.09.23 0 .35.21.4 1.17.29 2.33.59 3.5.85.27.06.58.01.86-.04.7-.14 1.39-.29 2.08-.47.23-.06.44-.19.66-.31.22-.12.44-.26.69-.34-.16.61-.48 1.11-.86 1.56-.19.22-.21.21-.89.15-.1.32-.27.65-.3.99-.04.44-.26.74-.53 1.04-.36.39-.75.76-1.07 1.19-.53.73-1.29.96-2.12 1.08-.29.04-.58.03-.86.06-.54.06-.93-.09-1.23-.58-.15-.25-.44-.43-.71-.58-.92-.53-1.89-.86-2.96-.94-.4-.03-.78-.27-1.17-.42-.15-.06-.29-.13-.55-.25.02.3.01.47.05.63.1.43.21.86.33 1.29.04.14.13.28.23.39.7.79 1.62 1.24 2.62 1.51.51.13 1.05.04 1.49-.22.67-.4 1.38-.45 2.12-.42.3.01.6.01 1.02.02-.71.89-1.63 1.28-2.36 1.9-.74.63-1.55 1.17-2.3 1.73-.61-.31-1.13-.61-1.68-.86-.69-.31-1.41-.4-2.15-.25-.38.08-.43.22-.24.55.38.68 1 1.05 1.71 1.29.25.09.5.16.83.26-.14.14-.22.28-.34.33-.46.21-.94.39-1.41.59-.21.09-.4.19-.6.29-.52.24-1.03.51-1.57.71-.17.07-.49.05-.62-.07-.71-.62-1.58-.78-2.45-.99-.43-.1-.87-.2-1.3-.31-.4-.1-.79-.07-1.17.18.02.65.37 1.08.94 1.3.53.21 1.09.36 1.65.53.23.07.46.12.85.23-.32.14-.49.22-.66.28-.73.26-1.45.55-2.2.76-.89.26-1.8.45-2.72.67-.8-1.92-1.96-3.38-3.94-3.99-.33.47-.07 1.59.5 2.65.51.94 1.48 1.12 2.45 1.58-1.66.32-3.2.37-4.83.39.05-.26.07-.47.12-.67.4-1.63.01-2.99-1.37-4.02-.43-.32-.84-.67-1.27-1l-.39.3c.97.56 1.86 1.22 2.4 2.28.54 1.06.38 2.27-.4 3.28-.16-.07-.38-.11-.52-.23-.9-.83-1.75-1.72-2.12-2.93-.17-.56-.21-1.17-.25-1.77-.16.11-.31.21-.47.3.12 1.1.26 2.2 1.06 3.1.44.5.85 1.01 1.36 1.61l-2.65.03h-.13c-.22-.01-.42-.01-.6.19-.08.09-.29.1-.43.08-.33-.02-.66-.08-1.02-.12-.06-.13-.12-.24-.16-.36-.16-.54-.31-1.07-.47-1.61-.13.53-.26 1.07-.4 1.6-.01.06-.03.11-.04.17.04.05.08.09.12.14h-.15c-.04.17-.08.33-.13.5.31.03.62.04.94.04h.13c.4 0 .84 0 1.22.29-.45.46-.86.9-1.3 1.3-.6.54-.85 1.24-.99 1.99-.11.59.11.79.64.55.5-.23 1-.49 1.43-.84 1.05-.85 2.19-1.62 2.77-2.92.21-.47.53-.65 1.06-.59.48.05 1.01.11 1.46-.02.94-.28 1.89-.24 2.85-.22.12 0 .24.06.43.11-.3.44-.56.82-.81 1.21-.33.52-.33.52-.98.42-1.17-.19-1.93.18-2.5 1.2-.24.42-.37.83.07 1.16-.14.36-.28.69-.39 1.02-.18.61.15 1.35.78 1.78.42.28.94.22 1.48-.2.21-.16.41-.34.6-.5.81.53 1.24.4 1.63-.47.17-.39.35-.77.5-1.16.05-.14.06-.31.04-.46-.14-.72-.6-1.23-1.17-1.64-.17-.12-.34-.1-.44.21.15.11.33.23.49.38.36.36.76.74.63 1.31-.09.41-.28.8-.44 1.18-.1.23-.24.52-.51.41-.18-.07-.28-.35-.4-.55-.03-.05 0-.14-.03-.19-.06-.11-.15-.2-.22-.3-.09.11-.19.21-.26.32-.03.05-.03.13-.04.19-.08.58-.52.86-.97 1.11-.24.14-.47.06-.68-.1-.73-.56-.71-1.62.06-2.17.15-.11.33-.2.59-.35-.21-.11-.33-.19-.46-.23-.16-.05-.33-.08-.49-.11.17-1.05.73-1.52 1.69-1.46.33.02.66.1.99.13.25.02.48-.01.63-.28.34-.62.72-1.22 1.05-1.85.11-.21.26-.26.47-.31.98-.19 1.96-.41 2.94-.6.55-.11 1.1-.26 1.76-.21-.26.38-.46.69-.69.99-.98 1.24-.98 2.63-.62 4.06.3 1.19 1.17 1.5 2.33 1.34.54-.08 1.07-.31 1.59-.49.19-.07.35-.22.52-.33l.06-.15c-.96-.21-1.05-.98-1.24-1.68-.12-.45-.41-.79-.81-1.02-.42-.24-.86-.46-1.29-.69-.15-.08-.29-.17-.47-.28.36-.53.68-1.01 1-1.49.44-.66 1.06-1.05 1.82-1.25.47-.12.92-.31 1.37-.51.44-.2.86-.47 1.28-.26.78-.77 1.78-.83 2.71-1.26-.34.71-.61 1.32-.93 1.9-.09.16-.35.28-.55.31-.67.1-1.15.46-1.49 1.01-.26.42-.51.84-.74 1.27-.27.5-.08 1.1.42 1.36.16.08.33.13.5.19.02.22.06.42.07.61.02.61.66.88 1.1.81.35-.06.6-.27.81-.54.13-.17.26-.34.39-.5.24.1.42.2.61.26.7.2 1.36-.39 1.25-1.12-.17-1.16-.62-2.18-1.49-2.97-.22-.2-.27-.42-.27-.71-.01-.52.32-.88.61-1.23.32-.39.18-.97.59-1.27.39-.29.83-.51 1.23-.79.85-.6 1.7-1.22 2.55-1.82.11-.08.26-.12.44-.2 0 .45-.03.82.01 1.19.08.9.17 1.8.29 2.7.06.44.16.88.29 1.3.14.44.26.94.73 1.15.5.22 1.03.44 1.57.53 1.36.22 2.65-.19 3.94-.53.32-.08.33-.33.28-.59-.1-.45-.22-.91-.32-1.36-.13-.62-.5-1.01-1.06-1.28-.94-.46-1.93-.67-2.97-.64-.64.01-1.23-.19-1.8-.46-.29-.14-.54-.34-.52-.71.02-.44 0-.9.11-1.33.09-.34.31-.7.56-.95.35-.36.81-.63 1.19-.96.56-.48 1.11-.96 1.63-1.47.54-.53 1.04-1.1 1.56-1.64.13-.13.24-.34.5-.23.02.06.05.12.07.18.03.11.06.22.06.33.01 1.03.5 1.88 1 2.72.11.19.24.38.4.53.27.26.61.18.74-.17.05-.12.05-.26.06-.39.03-.53.05-1.06.09-1.6.07-1.01-.11-1.95-.82-2.73-.16-.18-.29-.38-.44-.58.18-.28.34-.52.49-.77.6-1.01 1.19-2.03 1.8-3.03.25-.42.47-.88.93-1.18.57 1.81 1.61 2.87 2.8 2.83-.03-.26-.04-.52-.08-.78-.16-.99-.33-1.97-.49-2.96-.08-.51-.25-.99-.6-1.39-.11-.13-.21-.28-.25-.35.26-.72.58-1.35.7-2.02.24-1.24.91-2.3 1.31-3.46.07.01.1.01.11.02.08.13.17.26.24.39.5.92 1.23 1.64 2.09 2.2.74.49 1.52.94 2.47.88.34-.02.66-.07.85-.38-.14-.24-.29-.44-.36-.66-.25-.82-.7-1.53-1.17-2.24-.69-1.05-1.56-1.86-2.87-2.11-.54-.1-1.13-.23-1.07-1.01-.28-.32-.29-.71-.19-1.08.21-.8.2-1.62.28-2.43.13-1.32.04-2.62-.13-3.93-.05-.38-.04-.77-.07-1.32.57.53.99.95 1.44 1.32.32.26.43.52.31.92-.15.5-.18 1.03.03 1.51.21.51.48 1.01.8 1.46.15.21.45.34.7.45.48.2.95.12 1.39-.15.17.13.33.22.46.33.58.52.82.37 1.31-.09.18-.17.3-.44.36-.69.16-.62 0-1.19-.39-1.69.05-.12.1-.22.14-.32.35-.88.26-1.22-.51-1.8-.11-.08-.2-.17-.31-.25-.99-.7-1.96-.7-2.96-.01-.5.35-.72.36-1.18-.04-.44-.38-.84-.8-1.24-1.21-.28-.28-.39-.63-.38-1.03.01-.46 0-.94-.05-1.4-.25-1.93-.86-3.76-1.61-5.55-.12-.28-.21-.56-.31-.85.5.2.88.51 1.31.73.43.22.92.33 1.36.55 1.08.51 2.22.67 3.38.59.47-.03.95-.22 1.4-.4.22-.09.39-.31.54-.45-.77-.73-1.47-1.4-2.19-2.06-.16-.15-.35-.3-.55-.37-1.09-.36-2.19-.63-3.33-.26-.53.17-1.05.36-1.57.57-.63.26-.66.21-1.06-.35-.68-.97-1.08-2.1-1.88-3.01-.57-.65-.88-1.52-1.33-2.35.93.29 1.74.56 2.56.81.54.17 1.09.32 1.63.1.74-.31 1.46-.66 2.18-1.01.17-.08.36-.2.29-.45-.04-.03-.08-.07-.11-.07-.82.05-1.51-.25-2.14-.75-.29-.23-.64-.4-.96-.61-.92-.59-1.88-.62-2.87-.2-.51.21-1.02.41-1.58.63-.32-.44-.61-.87-.92-1.27-.51-.64-1.01-1.29-1.57-1.89-.39-.42-.89-.73-1.29-1.14-.4-.41-.75-.88-1.13-1.32-.13-.15-.26-.29-.15-.6.4.13.78.22 1.14.38.55.24 1.08.51 1.62.77.64.31 1.25.17 1.87-.08.86-.35 1.57-.92 2.24-1.54.16-.14.39-.31.27-.65-.66.18-1.22-.11-1.79-.34-.23-.09-.46-.17-.7-.22-.73-.14-1.43-.06-2.05.37-.29.2-.58.43-.8.71-.3.38-.65.4-1.07.29-.4-.12-.81-.32-1.21-.31-.38.01-.57-.14-.8-.36-.98-.97-2.01-1.89-3.16-2.66-.49-.33-.94-.7-1.49-1.11.8-.26 1.48-.48 2.24-.33.7.14 1.37 0 2.03-.24.78-.28 1.1-.99 1.53-1.6.04-.06-.08-.34-.17-.37-.55-.17-1.12-.43-1.66-.39-1.09.07-1.98.63-2.57 1.58-.19.31-.43.51-.77.59-.32.07-.65.16-.98.19-.47.04-.89-.05-1.33-.29-1.38-.76-2.8-1.45-4.31-1.94-.23-.07-.47-.15-.7-.23.19.27.29.48.4.69"/></defs><clipPath id="SVGID_91_"><use xlink:href="#SVGID_90_" overflow="visible"/></clipPath><linearGradient id="SVGID_92_" gradientUnits="userSpaceOnUse" x1="0" y1="125.608" x2="1" y2="125.608" gradientTransform="scale(91.7175 -91.7175) rotate(41.016 169.484 62.554)"><stop offset="0" stop-color="#eec65f"/><stop offset=".23" stop-color="#a76f2a"/><stop offset=".33" stop-color="#e2b755"/><stop offset=".58" stop-color="#e2b755"/><stop offset=".69" stop-color="#8f5d21"/><stop offset="1" stop-color="#e2b755"/></linearGradient><path clip-path="url(#SVGID_91_)" fill="url(#SVGID_92_)" d="M-.72 58.69L66.23.45l60.04 69.03-66.95 58.24z"/><defs><path id="SVGID_93_" d="M13.13 43.07c-.02.02-.04.05-.05.07.3-.03.59-.08.88-.15l.03-.03c.41-.37.93-.57 1.49-.56.2-.11.41-.22.61-.34l-.01-.01c-.3-.18-.69-.23-1.1-.36-.63.37-1.36.7-1.85 1.38"/></defs><clipPath id="SVGID_94_"><use xlink:href="#SVGID_93_" overflow="visible"/></clipPath><linearGradient id="SVGID_95_" gradientUnits="userSpaceOnUse" x1="0" y1="125.627" x2="1" y2="125.627" gradientTransform="scale(91.7157 -91.7157) rotate(41.017 168.81 62.302)"><stop offset="0" stop-color="#eec65f"/><stop offset=".23" stop-color="#a76f2a"/><stop offset=".33" stop-color="#e2b755"/><stop offset=".58" stop-color="#e2b755"/><stop offset=".69" stop-color="#8f5d21"/><stop offset="1" stop-color="#e2b755"/></linearGradient><path clip-path="url(#SVGID_94_)" fill="url(#SVGID_95_)" d="M12.36 42.31l2.43-2.11 2.01 2.32-2.42 2.11z"/><defs><path id="SVGID_96_" d="M3.54 42.63c.35-.12.71-.05 1.01.14.51.32 1 .67 1.47 1.04.29.23.56.5.58 1.03-.47-.41-.85-.75-1.23-1.07-.05-.04-.16 0-.28 0-.06.53.41.71.65 1.01.24.3.55.55.72.97-1.28-.28-3.08-1.98-2.92-3.12m-.94-.33c.14.27.26.55.41.81.3.52.56 1.07.93 1.53.61.75 1.42 1.28 2.32 1.64.49.19.85.48 1.05.91.11-.09.25-.19.38-.29-.05-.13-.09-.26-.14-.39-.24-.53-.42-1.06-.42-1.65 0-.56-.29-1.03-.72-1.38-.51-.4-1.03-.77-1.58-1.11-.34-.21-.77-.31-1.18-.31-.4-.01-.77.08-1.05.24"/></defs><clipPath id="SVGID_97_"><use xlink:href="#SVGID_96_" overflow="visible"/></clipPath><linearGradient id="SVGID_98_" gradientUnits="userSpaceOnUse" x1="0" y1="125.626" x2="1" y2="125.626" gradientTransform="scale(91.7166 -91.7166) rotate(41.016 168.743 62.277)"><stop offset="0" stop-color="#eec65f"/><stop offset=".23" stop-color="#a76f2a"/><stop offset=".33" stop-color="#e2b755"/><stop offset=".58" stop-color="#e2b755"/><stop offset=".69" stop-color="#8f5d21"/><stop offset="1" stop-color="#e2b755"/></linearGradient><path clip-path="url(#SVGID_97_)" fill="url(#SVGID_98_)" d="M.05 44.26l5.44-4.73 4.74 5.44-5.44 4.73z"/><defs><path id="SVGID_99_" d="M20.61 90.37c.84-.19 1.35.15 1.49.97.14.79-.12 1.54-.28 2.3-.13.6-.27 1.2-.41 1.85-.41-.01-.76-.31-1.04-.63-.38-.43-.71-.91-1.02-1.39-.41-.64-.27-1.33-.12-2 .08-.35.34-.6.71-.72.73 2.44.78 2.52 1.43 2.68-.48-1.02-.93-1.98-.76-3.06m4.36-.59c-.34-1.07-.52-2.15.19-3.35.4 1.35.46 2.58.28 3.86-.38-.03-.41-.3-.47-.51m-10.48-2.05c-.06-.21-.17-.41-.22-.63-.07-.27-.06-.56.19-.73.38-.25.8-.45 1.26-.71.31.77.34 1.47-.12 2.08-.4.52-.66 1.1-.91 1.69-.1.23-.29.43-.45.64-.15.19-.32.36-.53.58-.68-.52-1.03-1.21-1.01-2.08.01-.37.11-.75.15-1.12.1-.96.41-1.58 1.81-1.76-.27.2-.41.3-.54.41-.33.32-.45.69-.27 1.15.23.56.46.99.83 1.34-.08-.38-.12-.62-.19-.86m6.13-5.34c.31.01.47.2.53.49.31 1.51.27 3-.35 4.48-1.16-.52-1.29-3.51-.18-4.97M5.9 78.3c.35-.42.85-.52 1.34-.6 1.41-.23 2.79-.18 4.05.7-.11.18-.28.1-.43.07-.87-.19-1.74-.33-2.63-.17-.21.04-.42.09-.7.15.21.38.44.35.69.33.51-.04 1.02-.06 1.52-.06.2 0 .41.08.65.14-.44.48-1.02.67-1.62.67-1.02 0-2.13-.55-2.87-1.23m9.33 2.38c.09-1.54.56-2.96 1.37-4.27.32-.51.8-.81 1.35-1.02.95 1.24.04 4.9-1.72 6.36-.05-.27.02-.48.11-.7.29-.7.57-1.4.85-2.1.12-.28.25-.56.08-1-.44.43-.46.94-.67 1.36-.22.44-.38.9-.57 1.35-.19.45-.37.89-.62 1.34-.18-.42-.2-.88-.18-1.32m-3.86-7.77c.15-.32.36-.61.74-.71.34.8-.3 2.89-1.18 3.68.06-1.05-.01-2.05.44-2.97m-7.09-4.58c1.14.48 1.93 1.26 2.37 2.4.24.62.16.83-.43 1.15-.07.04-.19.1-.19.16-.01.5-.41.46-.71.5-.8.1-1.57.08-2.3-.4-.29-.19-.39-.41-.39-.7.01-.33.12-.61.48-.72.18-.05.36-.13.68-.25-.24-.18-.37-.27-.5-.36-.25-.18-.52-.33-.73-.55-.21-.22-.29-.5-.08-.78.21-.28.49-.29.78-.18.22.09.43.22.68.34.11-.21.22-.41.34-.61m-1.07-4.48c.92-.01 1.71.3 2.45.67.75.37.84 1.25 1.31 1.87-.11.04-.24.06-.38.06-1.11.01-3.01-1.23-3.38-2.6m5.92 1.62c.41-.37.82-.76 1.18-1.18.43-.49.96-.6 1.56-.55.38.03.75.1 1.18.16-.06.15-.09.27-.15.37-.23.43-.46.86-.7 1.29-.54.94-1.37 1.39-2.41 1.48-.03-.05-.07-.1-.1-.15.4-.4.8-.8 1.21-1.2.21-.21.45-.32.69.06.09-.61-.12-.84-.51-.65-.33.16-.62.42-.91.65-.4.32-.77.67-1.18.98-.11.09-.3.08-.53.14.14-.61.28-1.06.67-1.4m-2.19-4.15c.23-.91.59-1.76 1.18-2.5.36-.46.76-.66 1.57-.78.23.3.11.55-.03.78-.23.4-.46.81-.75 1.17-.47.59-.98 1.14-1.49 1.69-.11.12-.28.2-.54.37.02-.32.01-.53.06-.73m-4.08-5.3c-.75-.05-1.49-.13-2.26-.19.02-.7.25-1.27.54-1.77.45-.79 2.06-1.08 2.82-.55.15.1.24.28.43.51-.29.04-.57 0-.84-.03-.37-.05-.72-.1-1.06.06-.03.32.19.33.38.36.33.04.66.05.99.1.23.04.45.12.7.19-.32.62-.82.94-1.33 1.25-.1.06-.23.1-.34.1 0-.03-.01-.03-.03-.03m4.31-4.04c-.22 1.07-.4 2.14-.6 3.21-.03.18-.08.36-.11.54l-.13.03c-.24-.63-1.03-.84-1.1-1.59-.01-.05-.09-.09-.14-.14-.15-.15-.3-.31-.44-.46-.12-.13-.22-.29-.36-.39-1.02-.72-2.82-.47-3.48.57-.44.72-.65 1.55-.81 2.41.19.07.33.15.47.17.64.06 1.29.11 1.93.16.66.06 1.22-.17 1.7-.62.3-.28.61-.57.95-.89.8.67 1.32 1.38 1.18 2.47-.13 1.04-.2 2.08-.28 3.13-.02.19.01.4.05.59.18.94.38 1.87.57 2.81.05.26.07.53.1.8-.46-.55-1.05-.75-1.64-.94-.34-.11-.67-.26-1.02-.32-.41-.07-.84-.08-1.26-.08-.14 0-.28.14-.47.24.39.51.73.95 1.07 1.38.65.83 1.51 1.38 2.51 1.7.34.11.69.17 1.04.23.27.05.46.18.52.44.09.39.2.78.25 1.17.13.85-.06 1.79.75 2.43.04.04.05.12.07.19l.57 1.93c-.67-.47-1.26-.89-1.86-1.32a.29.29 0 01-.03-.11c.03-1.77-1.05-2.85-2.38-3.76-.32-.22-.68-.24-.98.06-.21.2-.42.19-.67.13-.43-.09-.8.04-1.05.41-.27.4-.19.81.05 1.19.14.22.33.41.51.63-.79.68-.49 1.45-.17 2.2.13.32.29.64.78.59-.04-.16-.06-.28-.09-.41.91.38 1.83.27 2.74.07.17-.03.33-.14.47-.24.5-.34.7-.36 1.19-.03.4.28.79.58 1.15.91.51.46.91.98 1.15 1.67.26.75.5 1.54 1.09 2.14.06.06.04.19.05.25-.62-.12-1.2-.3-1.79-.33-.7-.04-1.42.06-2.13.09-.6.02-1.12.26-1.61.58-.47.31-.49.55-.02.82.59.35 1.2.67 1.83.96 1.05.48 2.1.54 3.12-.13.11-.07.23-.14.35-.18.37-.14.74-.26 1.14-.41.35.59.65 1.11.96 1.61.16.26.32.53.52.77.35.43.73.84 1.1 1.25.13.14.27.33.44.38 1.09.32 1.62 1.24 2.34 2.13-.73-.06-1.33-.1-2.09-.16-.33.11-.82.31-1.34.45-.55.15-.99.46-1.23.95-.52 1.1-.55 2.27-.24 3.44.01.04.04.08.06.12.31.41.58.85.93 1.22.29.3.59.65 1.11.72 0-.17.04-.31-.01-.42-.18-.42-.11-.76.24-1.07.17-.16.29-.4.37-.63.2-.6.48-1.15.88-1.64.34-.42.48-.9.45-1.43-.02-.35-.04-.7-.07-1.16.59.11 1.13.22 1.66.32.83.84 2.02 1.33 2.45 2.59.47-.26.78-.02 1.09.25.35.3.74.57 1.11.86.11.09.2.2.32.33-.47.17-.84.05-1.22-.07-.67-.2-1.35-.36-1.85.35-.05.07-.14.11-.22.15-.97.58-1.14 1.51-.98 2.5.19 1.15.85 2.05 1.8 2.7.51.35 1.08.62 1.62.91.18.1.38.16.51-.13-.04-.06-.06-.15-.12-.21-.48-.47-.55-1.04-.4-1.67.06-.24.12-.47.19-.71.3-1.01.53-2.03.11-3.07-.01-.03.03-.07.05-.1.37-.07.73-.14 1.07-.2.77.45 1.55.89 2.34 1.35.05-.16.1-.34.16-.53-.05-.03-.1-.07-.14-.1.15-3.57 0-4.72-.75-5.39-1.16 1.42-1.01 2.98-.48 4.63-.35.02-.56-.18-.75-.32-.76-.58-1.49-1.2-2.25-1.78-.26-.2-.37-.41-.28-.74.1-.34.15-.69.23-1.04.27-1.24.22-2.48-.06-3.71-.06-.28-.13-.56-.19-.84-.65-.18-1.03-.05-1.31.54-.52 1.09-.75 2.23-.55 3.44.02.15.06.31.08.46 0 .04-.01.08-.03.19-1.44-.95-2.35-2.38-3.56-3.57.21-.26.36-.51.57-.7 1.49-1.42 2.06-3.23 2.26-5.2.01-.09 0-.18-.01-.27-.03-.83-.52-1.63-.07-2.59-.51.16-.91.16-1.04.65-.03.11-.15.22-.25.28-1.19.64-1.7 1.77-2.11 2.96-.38 1.12-.61 2.28-.58 3.47 0 .11-.02.21-.04.4-.16-.1-.27-.15-.36-.23-.88-.85-1.39-1.94-1.96-2.99-.05-.1-.09-.21-.15-.3-.35-.56-.71-1.11-1.06-1.66.97-1.62 1.72-3.23 1.48-5.18-.71.06-1.21.33-1.51.9-.3.57-.53 1.18-.57 1.84-.01.23-.06.46-.1.69-.05.01-.1.01-.15.02-.25-.63-.55-1.25-.75-1.9-.45-1.44-.88-2.89-1.28-4.35-.11-.4-.08-.83-.11-1.22.38-.27.72-.18 1.03-.1 1.04.25 1.88-.17 2.66-.76.2-.15.36-.39.5-.61.25-.4.44-.82.69-1.22.15-.24.35-.46.55-.66.29-.3.29-.64-.07-.7-.98-.16-1.98-.39-2.95.04-.18.08-.33.22-.48.35-.89.78-1.77 1.56-2.22 2.79-.16-.17-.29-.27-.34-.39-.23-.51-.7-3.13-.67-3.65.98-.71 1.78-1.61 2.5-2.56.54-.7.89-1.53.92-2.48-.55-.26-1.01.01-1.47.19-.8.31-1.21 1.01-1.6 1.71-.2.35-.33.73-.49 1.1a.58.58 0 01-.28.31c-.01-.25-.06-.51-.04-.76.09-.97.17-1.95.3-2.92.14-1.06.33-2.11.51-3.16.1-.6.29-1.15.71-1.62.23-.26.45-.54.67-.81-.21.04-.41.07-.6.07.01.04-.01.05-.02.06-.04.05-.1.08-.16.11h-.02c-.01 0-.01 0 0 0 .01-.05.02-.09.04-.14-.21-.01-.4-.04-.57-.09-.04.13-.08.27-.11.41"/></defs><clipPath id="SVGID_100_"><use xlink:href="#SVGID_99_" overflow="visible"/></clipPath><linearGradient id="SVGID_101_" gradientUnits="userSpaceOnUse" x1="0" y1="125.624" x2="1" y2="125.624" gradientTransform="scale(91.7174 -91.7174) rotate(41.017 169.14 62.425)"><stop offset="0" stop-color="#eec65f"/><stop offset=".23" stop-color="#a76f2a"/><stop offset=".33" stop-color="#e2b755"/><stop offset=".58" stop-color="#e2b755"/><stop offset=".69" stop-color="#8f5d21"/><stop offset="1" stop-color="#e2b755"/></linearGradient><path clip-path="url(#SVGID_100_)" fill="url(#SVGID_101_)" d="M-22.27 70.94l37.08-32.26 33.48 38.49-37.09 32.26z"/><defs><path id="SVGID_102_" d="M13.57 39.53c1.26-1.52 2.83-1.79 4.58-1.43-.3.5-1.78 1.13-2.9 1.2.6-.3 1.27-.43 1.91-.76-.24-.29-.46-.26-.67-.19-.64.19-1.27.39-1.9.6-.25.08-.49.16-.54.5-.02.12-.07.16-.15.16-.08 0-.2-.06-.33-.08m-4.69-3.82c1.43.18 2.94 2.78 2.42 4.27-.14-.53-.25-1.07-.42-1.6-.1-.34-.25-.67-.41-.98-.12-.23-.33-.35-.59-.13.2.45.44.87.59 1.32.14.46.19.94.21 1.44-.75-1.37-1.49-2.74-1.8-4.32m4.46-4.41c-.3-1.3-.63-2.6-.3-3.94.15-.6.37-1.19.86-1.71 1.68 2.36 2.6 4.9 2.33 7.81-.12-.47-.22-.94-.38-1.4-.41-1.2-.84-2.39-1.27-3.58-.04-.11-.23-.26-.32-.25-.23.03-.22.25-.17.43.09.3.17.6.3.88.55 1.18.92 2.41 1.22 3.67.05.18.03.38.05.57l-.15.06c-.96-.65-1.88-1.3-2.17-2.54m10.77-6.05c-.09.47-.09.97-.08 1.45 0 .28.1.57.15.85.09.51.07.5-.4.77-.61.36-1.24.72-1.79 1.15-1.67 1.29-3.25 2.7-4.76 4.17-.1.1-.23.16-.44.31 0-.79.04-1.48-.01-2.16-.1-1.25-.3-2.48-.85-3.62-.44-.9-.94-1.77-1.46-2.62-.2-.32-.4-.6-.28-.99-.48-.01-.65.11-.77.47-.11.33-.23.67-.4.98-.54.99-.8 2.04-.62 3.15.14.88.36 1.74.53 2.62.13.67.54 1.15 1.05 1.57.48.4.97.78 1.46 1.16.12.09.25.17.41.27-1.37 1.76-2.79 3.34-3.79 5.23-.01-1.25-.43-2.35-1.07-3.35-.72-1.14-2.1-1.91-2.83-1.73.1.43.18.81.26 1.19.05.22.09.44.17.64.27.68.54 1.36.84 2.03.44.97.82 1.98 1.75 2.63.03.02.02.08.04.15-.05.08-.1.18-.16.27-.25.4-.46.81-.67 1.22.18.01.37.02.57.04h.01c.5-.92 1.05-1.82 1.59-2.72.15-.25.37-.32.62-.3 1.77.11 3.37-.47 4.91-1.25.31-.16.6-.38.88-.61.27-.22.2-.47-.13-.6a.92.92 0 00-.33-.06c-.89-.02-1.78-.1-2.67-.03-.46.04-.91.31-1.36.51-.24.11-.44.29-.75.37.16-.24.31-.49.48-.73 1.25-1.69 2.74-3.15 4.31-4.54.85-.76.98-.73 1.83 0 .53.46 1.14.85 1.71 1.26.11.08.24.12.35.2.47.36.97.56 1.49.71.03-.03.06-.07.1-.1-.17-.17-.33-.36-.45-.58a3.33 3.33 0 01-.74-.45c-.28-.21-.63-.32-.92-.52-.49-.34-.95-.72-1.37-1.18.4 0 .82-.06 1.21.01.52.09 1.04.21 1.56.32.05-.18.12-.35.19-.51-.72-.13-1.45-.25-2.17-.38-.12-.02-.25-.04-.37-.07.73-.39 1.43-.61 2.25-.53.27.03.53.07.8.11.1-.14.2-.28.3-.43-.5-.08-1.01-.18-1.51-.25-.32-.04-.66.06-.98.12-.26.05-.5.15-.81.14.29-.25.55-.54.86-.76.7-.5 1.4-1.05 2.17-1.43.59-.29 1.13-.6 1.65-1.01.15-.12.33-.2.5-.29.01-.05.04-.1.05-.15l.29-1.52c.01-.05.02-.1.03-.14-.15.01-.28-.03-.42-.05-.29.86-.73 1.6-1.29 1.96-.26-.61-.26-1.6-.09-2.61-.18-.17-.32-.36-.44-.57-.08.27-.14.54-.19.81"/></defs><clipPath id="SVGID_103_"><use xlink:href="#SVGID_102_" overflow="visible"/></clipPath><linearGradient id="SVGID_104_" gradientUnits="userSpaceOnUse" x1="0" y1="125.605" x2="1" y2="125.605" gradientTransform="scale(91.7176 -91.7176) rotate(41.017 168.713 62.265)"><stop offset="0" stop-color="#eec65f"/><stop offset=".23" stop-color="#a76f2a"/><stop offset=".33" stop-color="#e2b755"/><stop offset=".58" stop-color="#e2b755"/><stop offset=".69" stop-color="#8f5d21"/><stop offset="1" stop-color="#e2b755"/></linearGradient><path clip-path="url(#SVGID_103_)" fill="url(#SVGID_104_)" d="M-1.09 32.48l19.71-17.14 17.17 19.73-19.72 17.15z"/><defs><path id="SVGID_105_" d="M98.45 81.62c0 2.6 1.67 4.27 4.31 4.27 1.32 0 2.55-.58 3.14-1.39l-.48-.55c-.56.63-1.39 1.14-2.63 1.14-2.08 0-3.48-1.38-3.48-3.48 0-2.02 1.22-3.47 3.29-3.47 1.24 0 1.95.4 2.64 1.06l.51-.54c-.54-.69-1.64-1.32-3.13-1.32-2.56.01-4.17 1.89-4.17 4.28"/></defs><clipPath id="SVGID_106_"><use xlink:href="#SVGID_105_" overflow="visible"/></clipPath><linearGradient id="SVGID_107_" gradientUnits="userSpaceOnUse" x1="0" y1="125.626" x2="1" y2="125.626" gradientTransform="matrix(298.3524 0 0 -298.3524 99.315 37562.434)"><stop offset="0" stop-color="#eec65f"/><stop offset=".23" stop-color="#a76f2a"/><stop offset=".33" stop-color="#e2b755"/><stop offset=".58" stop-color="#e2b755"/><stop offset=".69" stop-color="#8f5d21"/><stop offset="1" stop-color="#e2b755"/></linearGradient><path clip-path="url(#SVGID_106_)" fill="url(#SVGID_107_)" d="M98.45 77.35h7.45v8.55h-7.45z"/><defs><path id="SVGID_108_" d="M109.76 77.45v.79h2.98v7.54h.84v-7.54h2.98v-.79z"/></defs><clipPath id="SVGID_109_"><use xlink:href="#SVGID_108_" overflow="visible"/></clipPath><linearGradient id="SVGID_110_" gradientUnits="userSpaceOnUse" x1="0" y1="125.626" x2="1" y2="125.626" gradientTransform="matrix(298.348 0 0 -298.348 99.315 37561.89)"><stop offset="0" stop-color="#eec65f"/><stop offset=".23" stop-color="#a76f2a"/><stop offset=".33" stop-color="#e2b755"/><stop offset=".58" stop-color="#e2b755"/><stop offset=".69" stop-color="#8f5d21"/><stop offset="1" stop-color="#e2b755"/></linearGradient><path clip-path="url(#SVGID_109_)" fill="url(#SVGID_110_)" d="M109.76 77.45h6.8v8.33h-6.8z"/><defs><path id="SVGID_111_" d="M127.32 77.45l-2.64 5.47-3.53-5.47h-.99l4.08 6.31c-.37.75-.7 1.21-1.11 1.21-.1 0-.23-.04-.3-.07l-.36.69c.17.13.42.19.61.19.83 0 1.37-.68 1.94-1.88l3.15-6.45h-.85z"/></defs><clipPath id="SVGID_112_"><use xlink:href="#SVGID_111_" overflow="visible"/></clipPath><linearGradient id="SVGID_113_" gradientUnits="userSpaceOnUse" x1="0" y1="125.626" x2="1" y2="125.626" gradientTransform="matrix(298.3497 0 0 -298.3497 99.315 37562.098)"><stop offset="0" stop-color="#eec65f"/><stop offset=".23" stop-color="#a76f2a"/><stop offset=".33" stop-color="#e2b755"/><stop offset=".58" stop-color="#e2b755"/><stop offset=".69" stop-color="#8f5d21"/><stop offset="1" stop-color="#e2b755"/></linearGradient><path clip-path="url(#SVGID_112_)" fill="url(#SVGID_113_)" d="M120.16 77.45h8.02v8.33h-8.02z"/><defs><path id="SVGID_114_" d="M134.65 79.16v-.93h3.79v6.78h-4.91c.76-1.18 1.12-3.84 1.12-5.85m-.8-1.71V79c0 3.57-.7 5.22-1.23 6.01h-.88v2.33h.8v-1.56h7.03v1.56h.8v-2.33h-1.08v-7.56h-5.44z"/></defs><clipPath id="SVGID_115_"><use xlink:href="#SVGID_114_" overflow="visible"/></clipPath><linearGradient id="SVGID_116_" gradientUnits="userSpaceOnUse" x1="0" y1="125.626" x2="1" y2="125.626" gradientTransform="matrix(298.351 0 0 -298.351 99.315 37563.047)"><stop offset="0" stop-color="#eec65f"/><stop offset=".23" stop-color="#a76f2a"/><stop offset=".33" stop-color="#e2b755"/><stop offset=".58" stop-color="#e2b755"/><stop offset=".69" stop-color="#8f5d21"/><stop offset="1" stop-color="#e2b755"/></linearGradient><path clip-path="url(#SVGID_115_)" fill="url(#SVGID_116_)" d="M131.74 77.45h8.63v9.89h-8.63z"/><defs><path id="SVGID_117_" d="M151.18 77.45l-5.37 6.91v-6.91h-.84v8.33h.73l5.38-6.9v6.9h.84v-8.33z"/></defs><clipPath id="SVGID_118_"><use xlink:href="#SVGID_117_" overflow="visible"/></clipPath><linearGradient id="SVGID_119_" gradientUnits="userSpaceOnUse" x1="0" y1="125.626" x2="1" y2="125.626" gradientTransform="matrix(298.3495 0 0 -298.3495 99.315 37562.078)"><stop offset="0" stop-color="#eec65f"/><stop offset=".23" stop-color="#a76f2a"/><stop offset=".33" stop-color="#e2b755"/><stop offset=".58" stop-color="#e2b755"/><stop offset=".69" stop-color="#8f5d21"/><stop offset="1" stop-color="#e2b755"/></linearGradient><path clip-path="url(#SVGID_118_)" fill="url(#SVGID_119_)" d="M144.97 77.45h6.95v8.33h-6.95z"/><defs><path id="SVGID_120_" d="M157.93 80.05c0-1.01.62-1.82 2.23-1.82h2.52v3.58h-2.76c-1.28-.12-1.99-.83-1.99-1.76m2.34-2.6c-2.21 0-3.23 1.15-3.23 2.56 0 1.31.86 2.22 2.24 2.46l-2.78 3.31h1.04l2.66-3.19h2.49v3.19h.84v-8.33h-3.26z"/></defs><clipPath id="SVGID_121_"><use xlink:href="#SVGID_120_" overflow="visible"/></clipPath><linearGradient id="SVGID_122_" gradientUnits="userSpaceOnUse" x1="0" y1="125.626" x2="1" y2="125.626" gradientTransform="matrix(298.3532 0 0 -298.3532 99.314 37562.54)"><stop offset="0" stop-color="#eec65f"/><stop offset=".23" stop-color="#a76f2a"/><stop offset=".33" stop-color="#e2b755"/><stop offset=".58" stop-color="#e2b755"/><stop offset=".69" stop-color="#8f5d21"/><stop offset="1" stop-color="#e2b755"/></linearGradient><path clip-path="url(#SVGID_121_)" fill="url(#SVGID_122_)" d="M156.49 77.45h7.03v8.33h-7.03z"/><defs><path id="SVGID_123_" d="M178.05 79.16v-.93h3.79v6.78h-4.92c.77-1.18 1.13-3.84 1.13-5.85m-.8-1.71V79c0 3.57-.7 5.22-1.23 6.01h-.88v2.33h.8v-1.56h7.03v1.56h.8v-2.33h-1.09v-7.56h-5.43z"/></defs><clipPath id="SVGID_124_"><use xlink:href="#SVGID_123_" overflow="visible"/></clipPath><linearGradient id="SVGID_125_" gradientUnits="userSpaceOnUse" x1="0" y1="125.626" x2="1" y2="125.626" gradientTransform="matrix(298.351 0 0 -298.351 -16.805 37563.047)"><stop offset="0" stop-color="#eec65f"/><stop offset=".23" stop-color="#a76f2a"/><stop offset=".33" stop-color="#e2b755"/><stop offset=".58" stop-color="#e2b755"/><stop offset=".69" stop-color="#8f5d21"/><stop offset="1" stop-color="#e2b755"/></linearGradient><path clip-path="url(#SVGID_124_)" fill="url(#SVGID_125_)" d="M175.14 77.45h8.63v9.89h-8.63z"/><defs><path id="SVGID_126_" d="M188.37 77.45v8.33h6.06V85h-5.22v-3.06h4.77v-.79h-4.77v-2.91h5.1v-.79z"/></defs><clipPath id="SVGID_127_"><use xlink:href="#SVGID_126_" overflow="visible"/></clipPath><linearGradient id="SVGID_128_" gradientUnits="userSpaceOnUse" x1="0" y1="125.626" x2="1" y2="125.626" gradientTransform="matrix(298.3542 0 0 -298.3542 -16.806 37562.66)"><stop offset="0" stop-color="#eec65f"/><stop offset=".23" stop-color="#a76f2a"/><stop offset=".33" stop-color="#e2b755"/><stop offset=".58" stop-color="#e2b755"/><stop offset=".69" stop-color="#8f5d21"/><stop offset="1" stop-color="#e2b755"/></linearGradient><path clip-path="url(#SVGID_127_)" fill="url(#SVGID_128_)" d="M188.37 77.45h6.06v8.33h-6.06z"/><defs><path id="SVGID_129_" d="M199.52 77.45v8.33h.85v-7.54h5.28v7.54h.85v-8.33z"/></defs><clipPath id="SVGID_130_"><use xlink:href="#SVGID_129_" overflow="visible"/></clipPath><linearGradient id="SVGID_131_" gradientUnits="userSpaceOnUse" x1="0" y1="125.626" x2="1" y2="125.626" gradientTransform="matrix(298.3517 0 0 -298.3517 -16.805 37562.352)"><stop offset="0" stop-color="#eec65f"/><stop offset=".23" stop-color="#a76f2a"/><stop offset=".33" stop-color="#e2b755"/><stop offset=".58" stop-color="#e2b755"/><stop offset=".69" stop-color="#8f5d21"/><stop offset="1" stop-color="#e2b755"/></linearGradient><path clip-path="url(#SVGID_130_)" fill="url(#SVGID_131_)" d="M199.52 77.45h6.98v8.33h-6.98z"/><defs><path id="SVGID_132_" d="M218.12 77.45l-5.37 6.91v-6.91h-.84v8.33h.72l5.38-6.9v6.9h.85v-8.33z"/></defs><clipPath id="SVGID_133_"><use xlink:href="#SVGID_132_" overflow="visible"/></clipPath><linearGradient id="SVGID_134_" gradientUnits="userSpaceOnUse" x1="0" y1="125.626" x2="1" y2="125.626" gradientTransform="matrix(298.3569 0 0 -298.3569 -16.809 37563.008)"><stop offset="0" stop-color="#eec65f"/><stop offset=".23" stop-color="#a76f2a"/><stop offset=".33" stop-color="#e2b755"/><stop offset=".58" stop-color="#e2b755"/><stop offset=".69" stop-color="#8f5d21"/><stop offset="1" stop-color="#e2b755"/></linearGradient><path clip-path="url(#SVGID_133_)" fill="url(#SVGID_134_)" d="M211.91 77.45h6.95v8.33h-6.95z"/><defs><path id="SVGID_135_" d="M225.18 77.45v1.71c0 5.34-1.03 5.81-1.84 5.81v.81c.1.04.26.04.43.04 1.07.01 2.26-1.49 2.26-6.13v-1.46h3.91v7.56h.84v-8.33h-5.6z"/></defs><clipPath id="SVGID_136_"><use xlink:href="#SVGID_135_" overflow="visible"/></clipPath><linearGradient id="SVGID_137_" gradientUnits="userSpaceOnUse" x1="0" y1="125.626" x2="1" y2="125.626" gradientTransform="matrix(298.3548 0 0 -298.3548 -16.807 37562.754)"><stop offset="0" stop-color="#eec65f"/><stop offset=".23" stop-color="#a76f2a"/><stop offset=".33" stop-color="#e2b755"/><stop offset=".58" stop-color="#e2b755"/><stop offset=".69" stop-color="#8f5d21"/><stop offset="1" stop-color="#e2b755"/></linearGradient><path clip-path="url(#SVGID_136_)" fill="url(#SVGID_137_)" d="M223.34 77.45h7.45v8.38h-7.45z"/><defs><path id="SVGID_138_" d="M236.81 80.05c0-1.01.62-1.82 2.23-1.82h2.52v3.58h-2.76c-1.29-.12-1.99-.83-1.99-1.76m2.33-2.6c-2.21 0-3.22 1.15-3.22 2.56 0 1.31.86 2.22 2.24 2.46l-2.78 3.31h1.04l2.66-3.19h2.49v3.19h.84v-8.33h-3.27z"/></defs><clipPath id="SVGID_139_"><use xlink:href="#SVGID_138_" overflow="visible"/></clipPath><linearGradient id="SVGID_140_" gradientUnits="userSpaceOnUse" x1="0" y1="125.626" x2="1" y2="125.626" gradientTransform="matrix(298.3465 0 0 -298.3465 -16.8 37561.695)"><stop offset="0" stop-color="#eec65f"/><stop offset=".23" stop-color="#a76f2a"/><stop offset=".33" stop-color="#e2b755"/><stop offset=".58" stop-color="#e2b755"/><stop offset=".69" stop-color="#8f5d21"/><stop offset="1" stop-color="#e2b755"/></linearGradient><path clip-path="url(#SVGID_139_)" fill="url(#SVGID_140_)" d="M235.37 77.45h7.03v8.33h-7.03z"/><defs><path id="SVGID_141_" d="M253.68 77.45V85h-5.03v-7.55h-.85v8.33h7.01v1.56h.8V85h-1.09v-7.55z"/></defs><clipPath id="SVGID_142_"><use xlink:href="#SVGID_141_" overflow="visible"/></clipPath><linearGradient id="SVGID_143_" gradientUnits="userSpaceOnUse" x1="0" y1="125.626" x2="1" y2="125.626" gradientTransform="matrix(298.3466 0 0 -298.3466 -16.8 37562.484)"><stop offset="0" stop-color="#eec65f"/><stop offset=".23" stop-color="#a76f2a"/><stop offset=".33" stop-color="#e2b755"/><stop offset=".58" stop-color="#e2b755"/><stop offset=".69" stop-color="#8f5d21"/><stop offset="1" stop-color="#e2b755"/></linearGradient><path clip-path="url(#SVGID_142_)" fill="url(#SVGID_143_)" d="M247.8 77.45h7.81v9.89h-7.81z"/><defs><path id="SVGID_144_" d="M266.42 77.45l-5.37 6.91v-6.91h-.84v8.33h.72l5.38-6.9v6.9h.85v-8.33z"/></defs><clipPath id="SVGID_145_"><use xlink:href="#SVGID_144_" overflow="visible"/></clipPath><linearGradient id="SVGID_146_" gradientUnits="userSpaceOnUse" x1="0" y1="125.626" x2="1" y2="125.626" gradientTransform="matrix(298.3563 0 0 -298.3563 -16.81 37562.934)"><stop offset="0" stop-color="#eec65f"/><stop offset=".23" stop-color="#a76f2a"/><stop offset=".33" stop-color="#e2b755"/><stop offset=".58" stop-color="#e2b755"/><stop offset=".69" stop-color="#8f5d21"/><stop offset="1" stop-color="#e2b755"/></linearGradient><path clip-path="url(#SVGID_145_)" fill="url(#SVGID_146_)" d="M260.21 77.45h6.95v8.33h-6.95z"/><defs><path id="SVGID_147_" d="M278.77 77.45l-5.37 6.91v-6.91h-.85v8.33h.73l5.38-6.9v6.9h.84v-8.33z"/></defs><clipPath id="SVGID_148_"><use xlink:href="#SVGID_147_" overflow="visible"/></clipPath><linearGradient id="SVGID_149_" gradientUnits="userSpaceOnUse" x1="0" y1="125.626" x2="1" y2="125.626" gradientTransform="matrix(298.3502 0 0 -298.3502 -16.803 37562.16)"><stop offset="0" stop-color="#eec65f"/><stop offset=".23" stop-color="#a76f2a"/><stop offset=".33" stop-color="#e2b755"/><stop offset=".58" stop-color="#e2b755"/><stop offset=".69" stop-color="#8f5d21"/><stop offset="1" stop-color="#e2b755"/></linearGradient><path clip-path="url(#SVGID_148_)" fill="url(#SVGID_149_)" d="M272.55 77.45h6.95v8.33h-6.95z"/><defs><path id="SVGID_150_" d="M0 0h279.5v125.63H0z"/></defs><clipPath id="SVGID_151_"><use xlink:href="#SVGID_150_" overflow="visible"/></clipPath><path d="M98.45 66.54V38.6h11.3c9.42 0 11.62 4.75 11.62 9.18 0 4.59-2.95 9.18-11.66 9.18h-6.43v9.58h-4.83zm4.83-23.43v9.34h6.35c4.71 0 6.71-1.84 6.71-4.71 0-2.67-1.68-4.63-6.43-4.63h-6.63zm30.22-4.51h4.83v27.94h-4.83zm38.52 27.94L156.61 47.5v19.04h-4.71V38.6h3.75l15.41 19.12V38.6h4.71v27.94zm41.55-4.87c-2.32 3.27-6.59 5.19-11.34 5.19-8.78 0-14.37-5.63-14.37-14.29 0-7.98 5.63-14.29 14.29-14.29 5.07 0 9.06 2.04 10.98 4.83l-3.19 3.03c-1.92-2.12-4.51-3.23-7.54-3.23-5.75 0-9.5 3.83-9.5 9.66s3.99 9.66 9.7 9.66c3.51 0 6.23-1.4 8.14-3.67l2.83 3.11zm11.37-23.07h20.76v4.55h-15.93v7.03h14.89v4.39h-14.89v7.42h16.33v4.55h-21.16zm30.97 0h23.59v4.55h-9.38v23.39h-4.83V43.15h-9.38z" clip-path="url(#SVGID_151_)" fill="#3d3d3d"/></svg>